<?xml version="1.0" standalone="no"?>
<!DOCTYPE svg PUBLIC "-//W3C//DTD SVG 20010904//EN"
 "http://www.w3.org/TR/2001/REC-SVG-20010904/DTD/svg10.dtd">
<svg version="1.0" xmlns="http://www.w3.org/2000/svg"
 width="1711.000000pt" height="1701.000000pt" viewBox="0 0 1711.000000 1701.000000"
 preserveAspectRatio="xMidYMid meet">

<g transform="translate(0.000000,1701.000000) scale(0.100000,-0.100000)"
fill="#C84B31" stroke="none">
<path d="M8355 16593 c-16 -2 -109 -15 -205 -28 -96 -14 -281 -38 -410 -54
-392 -49 -529 -80 -1425 -322 -389 -105 -1001 -311 -1305 -439 -274 -115 -612
-297 -868 -469 -248 -166 -364 -269 -473 -424 -120 -170 -181 -342 -209 -589
-27 -235 49 -515 257 -953 53 -110 138 -292 190 -405 147 -319 217 -440 409
-702 189 -258 284 -391 281 -394 -2 -2 -53 26 -113 62 -243 145 -671 334
-1009 446 -292 97 -649 169 -1095 222 -428 51 -651 54 -840 10 -304 -69 -565
-245 -731 -490 -76 -114 -191 -358 -248 -530 -121 -363 -164 -616 -237 -1389
-22 -235 -22 -719 0 -1015 8 -118 23 -321 31 -450 37 -570 85 -880 210 -1379
98 -391 190 -687 342 -1101 90 -244 159 -407 283 -670 51 -107 128 -273 171
-369 127 -280 223 -428 416 -644 55 -62 139 -161 188 -222 155 -194 244 -271
374 -323 240 -97 689 -82 1023 34 483 168 1287 679 2403 1527 138 105 270 206
294 226 59 48 51 36 -114 -169 -395 -488 -657 -909 -808 -1295 -134 -345 -314
-996 -382 -1385 -59 -341 -51 -723 21 -1004 86 -332 278 -579 610 -784 114
-71 403 -219 567 -292 337 -148 702 -241 1257 -319 691 -97 979 -98 2020 -5
300 26 528 64 775 129 564 147 1140 471 1530 860 238 237 363 425 478 715 135
343 178 621 158 1013 -26 476 -81 715 -236 1014 l-63 122 61 -37 c38 -23 123
-98 222 -197 111 -111 181 -172 228 -200 125 -74 301 -194 387 -265 104 -87
248 -159 455 -230 199 -68 313 -85 458 -70 292 30 561 142 866 359 329 236
568 480 863 886 156 213 489 709 585 870 182 303 354 652 488 990 176 443 210
620 222 1150 9 395 -11 526 -120 778 -70 164 -144 282 -237 377 -84 86 -156
138 -277 199 -270 135 -423 166 -968 196 -275 14 -318 13 -648 -25 -95 -10
-248 -24 -342 -30 -93 -6 -282 -19 -420 -30 -237 -18 -873 -46 -881 -38 -2 2
65 19 148 37 385 83 896 268 1282 463 354 181 664 456 967 861 221 294 408
703 478 1042 54 265 50 660 -9 913 -29 120 -60 192 -178 412 -224 417 -241
443 -431 665 -56 66 -150 183 -209 260 -69 91 -180 215 -317 355 -116 118
-251 262 -300 318 -157 181 -217 225 -580 427 -382 213 -468 247 -797 314
-106 22 -236 49 -288 61 -198 45 -322 44 -590 -5 -74 -14 -209 -29 -300 -34
-230 -14 -341 -44 -521 -144 -366 -203 -671 -550 -1011 -1151 -44 -78 -77
-132 -74 -121 2 11 12 45 20 75 49 175 109 556 127 808 23 330 -30 834 -117
1098 -46 143 -187 392 -282 499 -114 129 -266 217 -515 299 -248 82 -422 107
-736 105 -108 -1 -209 -4 -226 -6z m628 -228 c106 -16 163 -36 355 -124 206
-94 288 -161 392 -321 65 -101 138 -257 160 -345 69 -270 89 -850 41 -1221
-50 -390 -119 -674 -292 -1202 -54 -167 -126 -403 -160 -525 -159 -583 -191
-673 -354 -1007 -98 -201 -130 -275 -146 -345 -11 -50 -31 -131 -45 -181 -13
-49 -24 -103 -24 -118 l0 -29 -57 6 c-219 24 -340 28 -493 18 -524 -36 -937
-195 -1325 -508 -110 -89 -313 -293 -389 -390 -27 -35 -52 -63 -55 -62 -3 0
-33 39 -66 87 -86 123 -269 302 -500 488 -223 179 -341 283 -654 578 -296 277
-332 321 -713 856 -57 80 -145 201 -194 270 -169 233 -242 360 -384 665 -54
115 -135 287 -180 380 -130 269 -221 509 -251 660 -23 116 -17 292 13 416 33
130 61 194 134 307 129 199 370 380 839 629 359 190 891 419 1327 569 243 83
842 248 1138 313 166 36 257 50 670 101 179 23 350 45 380 50 82 14 719 2 833
-15z m3395 -1345 c35 -6 140 -35 235 -65 95 -30 240 -74 322 -98 191 -56 283
-95 392 -164 49 -31 151 -95 228 -144 362 -226 321 -195 585 -459 135 -135
287 -286 339 -335 52 -50 147 -155 210 -235 63 -80 150 -187 193 -238 166
-197 198 -247 382 -598 146 -281 175 -358 197 -529 19 -150 16 -508 -5 -622
-68 -373 -282 -819 -562 -1170 -95 -118 -312 -343 -410 -424 -218 -179 -523
-330 -984 -487 -231 -78 -421 -126 -866 -218 -203 -41 -466 -95 -584 -119
-118 -25 -386 -69 -595 -99 -357 -51 -449 -70 -482 -98 -7 -6 -16 -8 -19 -6
-3 3 -16 61 -30 129 -62 300 -181 603 -332 847 -208 335 -526 619 -902 806
-205 101 -453 187 -653 226 l-57 11 33 42 c42 52 71 102 231 394 211 384 244
467 391 968 52 176 127 408 168 515 41 107 98 265 126 350 68 204 140 348 308
615 258 410 379 568 559 731 203 184 322 266 504 352 156 74 200 83 465 92
127 4 266 13 310 19 77 11 132 16 205 19 19 1 63 -3 98 -8z m-10328 -2720
c589 -36 922 -94 1238 -216 272 -105 910 -438 1237 -647 312 -198 448 -311
840 -697 165 -163 354 -341 420 -396 186 -155 635 -515 651 -521 8 -3 14 -9
14 -14 0 -5 -25 -53 -54 -106 -195 -348 -306 -773 -306 -1165 0 -383 101 -764
305 -1155 192 -369 480 -689 815 -906 545 -353 1231 -472 1855 -323 315 76
649 231 918 425 45 33 58 39 63 27 3 -8 18 -19 33 -24 18 -6 48 -38 83 -88 30
-44 95 -124 144 -178 253 -282 283 -323 561 -771 55 -88 172 -270 260 -405
232 -355 462 -748 598 -1020 167 -334 218 -580 219 -1055 1 -221 -2 -263 -22
-365 -81 -408 -261 -748 -551 -1039 -379 -380 -921 -673 -1442 -780 -231 -48
-395 -62 -1049 -92 -615 -28 -1002 -23 -1300 14 -576 73 -931 143 -1229 244
-169 57 -266 99 -516 226 -269 137 -406 229 -521 350 -79 82 -99 111 -148 209
-69 140 -108 286 -131 498 -23 198 -16 467 15 650 47 282 146 684 229 937 161
491 463 1041 816 1488 265 335 327 416 483 635 183 256 302 458 302 514 0 25
-6 38 -19 46 -11 5 -21 10 -23 10 -2 0 -42 -36 -88 -81 -369 -357 -2079 -1589
-2820 -2032 -91 -54 -246 -138 -345 -187 -311 -154 -479 -199 -775 -207 -352
-10 -448 41 -680 362 -52 72 -138 185 -191 252 -182 228 -208 274 -420 736
-187 408 -255 573 -372 897 -150 414 -222 650 -316 1025 -112 448 -136 615
-201 1398 -71 841 -73 997 -25 1507 58 600 93 803 202 1135 108 330 222 535
365 657 151 128 292 191 493 222 112 18 177 18 385 6z m6720 -1740 c526 -64
1005 -347 1363 -805 209 -268 334 -528 399 -825 19 -90 22 -133 22 -310 0
-178 -4 -225 -27 -352 -32 -173 -32 -196 -8 -267 l19 -54 -40 -91 c-233 -532
-615 -944 -1081 -1166 -540 -257 -1227 -249 -1773 21 -555 274 -952 753 -1084
1309 -51 215 -69 564 -41 780 63 483 296 935 634 1231 310 271 744 467 1162
523 123 17 341 20 455 6z m6135 -1598 c66 -11 170 -25 230 -31 535 -53 607
-69 836 -188 187 -97 275 -185 363 -368 98 -202 135 -348 143 -570 8 -226 -38
-624 -103 -879 -91 -359 -402 -1016 -705 -1488 -348 -542 -656 -973 -843
-1180 -275 -304 -617 -548 -898 -642 -89 -29 -246 -56 -332 -56 -109 0 -201
19 -366 75 -178 61 -249 99 -376 201 -107 86 -191 143 -349 239 -58 35 -116
85 -210 180 -110 112 -153 148 -278 229 -133 88 -156 107 -239 204 -51 59
-136 152 -191 207 -69 69 -119 131 -165 205 -112 180 -485 739 -577 865 -123
168 -208 268 -370 434 -183 188 -264 257 -315 271 l-41 11 108 107 c189 187
331 380 441 604 62 126 129 312 152 421 9 45 19 65 47 90 97 88 117 177 117
512 0 138 -6 288 -12 334 -7 47 -10 86 -8 88 1 2 23 -5 47 -14 37 -15 77 -18
244 -18 110 0 250 6 310 13 276 31 415 43 620 53 121 5 303 19 405 30 125 14
305 23 555 29 253 6 405 14 480 25 76 12 222 19 470 25 482 10 662 6 810 -18z"/>
</g>
</svg>
